<?xml version="1.0" encoding="UTF-8" standalone="no"?>
<!-- Created with Inkscape (http://www.inkscape.org/) -->

<svg
   width="89.938789mm"
   height="46.332069mm"
   viewBox="0 0 89.938789 46.332069"
   version="1.1"
   id="svg5"
   xml:space="preserve"
   inkscape:version="1.2 (dc2aedaf03, 2022-05-15)"
   sodipodi:docname="graze-logo.svg"
   xmlns:inkscape="http://www.inkscape.org/namespaces/inkscape"
   xmlns:sodipodi="http://sodipodi.sourceforge.net/DTD/sodipodi-0.dtd"
   xmlns="http://www.w3.org/2000/svg"
   xmlns:svg="http://www.w3.org/2000/svg"><sodipodi:namedview
     id="namedview7"
     pagecolor="#ffffff"
     bordercolor="#000000"
     borderopacity="0.25"
     inkscape:showpageshadow="2"
     inkscape:pageopacity="0.0"
     inkscape:pagecheckerboard="0"
     inkscape:deskcolor="#d1d1d1"
     inkscape:document-units="mm"
     showgrid="false"
     inkscape:zoom="1.1671122"
     inkscape:cx="-189.78467"
     inkscape:cy="-41.55556"
     inkscape:window-width="2560"
     inkscape:window-height="1511"
     inkscape:window-x="-9"
     inkscape:window-y="-9"
     inkscape:window-maximized="1"
     inkscape:current-layer="layer1" /><defs
     id="defs2" /><g
     inkscape:label="Layer 1"
     inkscape:groupmode="layer"
     id="layer1"
     transform="translate(-101.35815,-126.04313)"><g
       id="g2717"
       inkscape:export-filename="graze-logo.png"
       inkscape:export-xdpi="96"
       inkscape:export-ydpi="96"><text
         xml:space="preserve"
         style="font-style:italic;font-variant:normal;font-weight:bold;font-stretch:normal;font-size:5.35845px;font-family:Georgia;-inkscape-font-specification:'Georgia Bold Italic';fill:#000000;fill-opacity:1;fill-rule:evenodd;stroke:#ffffff;stroke-width:0.00682582;stroke-linecap:round;stroke-linejoin:round;stroke-dasharray:none;stroke-opacity:1"
         x="128.53558"
         y="164.08128"
         id="text2099"><tspan
           sodipodi:role="line"
           id="tspan2097"
           style="font-style:normal;font-variant:normal;font-weight:normal;font-stretch:normal;font-family:'Tw Cen MT Condensed';-inkscape-font-specification:'Tw Cen MT Condensed, ';stroke:#ffffff;stroke-width:0.00682582;stroke-dasharray:none;stroke-opacity:1"
           x="128.53558"
           y="164.08128">MAKING EVENTS EASY</tspan></text><path
         id="rect2205-3"
         style="fill:#03d9eb;fill-opacity:1;fill-rule:evenodd;stroke:none;stroke-width:0.336616;stroke-linecap:round;stroke-linejoin:round;stroke-dasharray:none;stroke-opacity:1"
         d="m 128.81105,126.04313 c -9.2281,0 -16.65739,7.42876 -16.65739,16.65686 0,9.2281 7.42929,16.65738 16.65739,16.65738 h 33.39382 c 5.51699,8e-5 5.51004,-7.19439 0,-7.19439 h -3.175 -5.03173 -3.175 -8.74727 -3.175 -5.03174 -3.175 c -5.26553,0 -9.50484,-4.23928 -9.50484,-9.50485 0,-5.26553 4.23931,-9.50484 9.50484,-9.50484 h 3.175 5.03174 3.175 8.74727 3.175 5.03173 3.175 c 8.88475,0 11.23241,2.60585 18.29656,6.68434 -1.34952,-7.85465 -8.16192,-13.7945 -16.41347,-13.7945 z"
         sodipodi:nodetypes="sssccccccccsssccccccccss" /><path
         id="rect2205-3-5"
         style="fill:#797986;fill-opacity:1;fill-rule:evenodd;stroke:none;stroke-width:0.336616;stroke-linecap:round;stroke-linejoin:round;stroke-dasharray:none;stroke-opacity:1"
         d="m 164.00992,172.3752 c 9.2281,0 16.65739,-7.42876 16.65739,-16.65686 0,-9.2281 -7.42929,-16.65738 -16.65739,-16.65738 H 130.6161 c -2.7585,-4e-5 -4.136,1.79856 -4.13514,3.59717 8.7e-4,1.7986 1.38012,3.59722 4.13514,3.59722 h 3.175 5.03173 3.175 8.74727 3.175 5.03174 3.175 c 5.26553,0 9.50484,4.23928 9.50484,9.50485 0,5.26553 -4.23931,9.50484 -9.50484,9.50484 h -3.175 -5.03174 -3.175 -8.74727 -3.175 -5.03173 -3.175 c -8.88475,0 -11.23241,-2.60585 -18.29656,-6.68434 1.34952,7.85465 8.16192,13.7945 16.41347,13.7945 z"
         sodipodi:nodetypes="ssscscccccccsssccccccccss" /><text
         xml:space="preserve"
         style="font-weight:900;font-size:37.0275px;font-family:Nunito;-inkscape-font-specification:'Nunito Heavy';fill:#000000;fill-opacity:1;fill-rule:evenodd;stroke:#ffffff;stroke-width:0.3;stroke-linecap:round;stroke-linejoin:round;stroke-dasharray:none;stroke-opacity:1"
         x="115.10956"
         y="137.7354"
         id="text1939-6"
         transform="scale(0.87797824,1.1389804)"><tspan
           sodipodi:role="line"
           id="tspan1937-9"
           style="font-style:normal;font-variant:normal;font-weight:bold;font-stretch:normal;font-family:Georgia;-inkscape-font-specification:'Georgia Bold';fill:#000000;stroke:#ffffff;stroke-width:0.3;stroke-dasharray:none;stroke-opacity:1"
           x="115.10956"
           y="137.7354">graze</tspan></text></g></g></svg>
